# xmcd CD database file
#
# Track frame offsets:
#	150
#	16620
#	30535
#	41148
#	49869
#	65641
#	81639
#	92623
#	105960
#	123495
#	137992
#	161296
#	175361
#	192042
#	207933
#	224343
#
# Disc length: 3164 seconds
#
# Revision: 0
# Processed by: cddbd v1.5.2PL0 Copyright (c) Steve Scherf et al.
# Submitted via: CDex 1.51
#
DISCID=dc0c5a10
DTITLE=get up and dance special nr 52 - get up and dance special nr. 52
DYEAR=2007
DGENRE=Country
TTITLE0=Head Over Heels
TTITLE1=On The Straitt And Narrow
TTITLE2=Sambacha
TTITLE3=Sambacha x
TTITLE4=Oush The Button
TTITLE5=Hideaway Cha
TTITLE6=Foolish Heart
TTITLE7=Ami Oh
TTITLE8=Surrender x
TTITLE9=Divisadero Cha
TTITLE10=I Love Thjis Bar
TTITLE11=Waltz For A Sailorman
TTITLE12=Streamlinin
TTITLE13=Tequila In Tijuana
TTITLE14=Sweer Nothings
TTITLE15=Crazy Cha x
EXTD=YEAR: 2007
EXTT0=
EXTT1=
EXTT2=
EXTT3=
EXTT4=
EXTT5=
EXTT6=
EXTT7=
EXTT8=
EXTT9=
EXTT10=
EXTT11=
EXTT12=
EXTT13=
EXTT14=
EXTT15=
PLAYORDER=
